# xmcd
#
# Track frame offsets: 
#        150
#        18025
#        38023
#        50606
#        70494
#        91237
#        95849
#        112965
#        127998
#        144303
#        161305
#
# Disc length: 2404 seconds
#
# Revision: 3
# Processed by: cddbd v1.5.2PL0 Copyright (c) Steve Scherf et al.
# Submitted via: ExactAudioCopy v0.99pb1
#
DISCID=8609620b
DTITLE=Various Artist - Visions Compilation - Volume 104 - All Areas (2009-06
DTITLE=)
DYEAR=2009
DGENRE=Indie
TTITLE0=Dredg - Saviour
TTITLE1=Lovedrug - Everyone Needs a Halo
TTITLE2=Division Of Laura Lee - Lax
TTITLE3=Eels - Fresh Blood
TTITLE4=Black Math Horseman - Tyrant
TTITLE5=Anti-Flag - You Are Fired (Take This Job, Ah, Fuck It.)
TTITLE6=Jupiter Jones - Das zu wissen
TTITLE7=Casting Out, The - Quixote's Last Ride
TTITLE8=Living End, The - Hey Hey Disbeliever
TTITLE9=Lemonheads, The - Beautiful (by Christina Aguilera)
TTITLE10=Sportfreunde Stiller - 7 Tage 7 Nächte
EXTD=
EXTT0=
EXTT1=
EXTT2=
EXTT3=
EXTT4=
EXTT5=
EXTT6=
EXTT7=
EXTT8=
EXTT9=
EXTT10=
PLAYORDER=
